{"title":"Sophia Sutra - Barely Legal 114","uid":11170820,"size":231770817,"categoryP":"porn","categoryS":"movie_clips","magnet":"?xt=urn:btih:3594f57d04a3b7d2280ac95cbc30c9a72639ea28&amp;dn=Sophia+Sutra+-+Barely+Legal+114&amp;tr=udp%3A%2F%2Ftracker.openbittorrent.com%3A80&amp;tr=udp%3A%2F%2Fopen.demonii.com%3A1337&amp;tr=udp%3A%2F%2Ftracker.coppersurfer.tk%3A6969&amp;tr=udp%3A%2F%2Fexodus.desync.com%3A6969","seeders":3,"leechers":0,"uploader":"athklym","files":-1,"time":1412700789,"description":" &lt;a href=&quot;http://bayimg.com/maAiLaAGo&quot; rel=&quot;nofollow&quot; target=&quot;_NEW&quot;&gt;http://bayimg.com/maAiLaAGo&lt;/a&gt;\nSophia_Sutra_Barely_Legal_114.avi\nFormat                                   : AVI\nFormat/Info                              : Audio Video Interleave\nFile size                                : 221 MiB\nDuration                                 : 26mn 20s\nOverall bit rate mode                    : Variable\nOverall bit rate                         : 1 173 Kbps\nWriting application                      : VirtualDubMod 1.5.10.2 (build 2540/release)\nWriting library                          : VirtualDub build 32817/release\n\nVideo\nID                                       : 0\nFormat                                   : MPEG-4 Visual\nFormat profile                           : Advanced Simple@L5\nFormat settings, BVOP                    : 2\nFormat settings, QPel                    : No\nFormat settings, GMC                     : No warppoints\nFormat settings, Matrix                  : Default (MPEG)\nCodec ID                                 : XVID\nCodec ID/Hint                            : XviD\nDuration                                 : 26mn 20s\nBit rate                                 : 1 039 Kbps\nWidth                                    : 640 pixels\nHeight                                   : 352 pixels\nDisplay aspect ratio                     : 16:9\nFrame rate                               : 23.976 fps\nColor space                              : YUV\nChroma subsampling                       : 4:2:0\nBit depth                                : 8 bits\nScan type                                : Progressive\nCompression mode                         : Lossy\nBits/(Pixel*Frame)                       : 0.192\nStream size                              : 196 MiB (89%)\nWriting library                          : XviD 1.2.1 (UTC 2008-12-04)\n\nAudio\nID                                       : 1\nFormat                                   : MPEG Audio\nFormat version                           : Version 1\nFormat profile                           : Layer 3\nMode                                     : Joint stereo\nMode extension                           : MS Stereo\nCodec ID                                 : 55\nCodec ID/Hint                            : MP3\nDuration                                 : 26mn 20s\nBit rate mode                            : Variable\nBit rate                                 : 121 Kbps\nChannel(s)                               : 2 channels\nSampling rate                            : 48.0 KHz\nCompression mode                         : Lossy\nStream size                              : 23.0 MiB (10%)\nAlignment                                : Aligned on interleaves\nInterleave, duration                     : 24 ms (0.58 video frame)\nInterleave, preload duration             : 534 ms\n\n","torrent":{"xt":"urn:btih:3594f57d04a3b7d2280ac95cbc30c9a72639ea28","amp;dn":"Sophia+Sutra+-+Barely+Legal+114","amp;tr":["udp%3A%2F%2Ftracker.openbittorrent.com%3A80","udp%3A%2F%2Fopen.demonii.com%3A1337","udp%3A%2F%2Ftracker.coppersurfer.tk%3A6969","udp%3A%2F%2Fexodus.desync.com%3A6969"],"infoHash":"3594f57d04a3b7d2280ac95cbc30c9a72639ea28","infoHashBuffer":{"type":"Buffer","data":[53,148,245,125,4,163,183,210,40,10,201,92,188,48,201,167,38,57,234,40]},"announce":[],"urlList":[]}}